<?xml version="1.0" encoding="UTF-8" standalone="no"?>
<svg
   viewBox="0 0 595.27557 841.88977"
   id="svg4155"
   height="841.88977"
   width="595.27557"
   version="1.1"
   sodipodi:docname="LOGO_LCAD.svg"
   inkscape:version="1.1.1 (3bf5ae0d25, 2021-09-20)"
   xmlns:inkscape="http://www.inkscape.org/namespaces/inkscape"
   xmlns:sodipodi="http://sodipodi.sourceforge.net/DTD/sodipodi-0.dtd"
   xmlns:xlink="http://www.w3.org/1999/xlink"
   xmlns="http://www.w3.org/2000/svg"
   xmlns:svg="http://www.w3.org/2000/svg"
   xmlns:rdf="http://www.w3.org/1999/02/22-rdf-syntax-ns#"
   xmlns:cc="http://creativecommons.org/ns#"
   xmlns:dc="http://purl.org/dc/elements/1.1/">
  <sodipodi:namedview
     id="namedview46"
     pagecolor="#ffffff"
     bordercolor="#666666"
     borderopacity="1.0"
     inkscape:pageshadow="2"
     inkscape:pageopacity="0.0"
     inkscape:pagecheckerboard="0"
     showgrid="false"
     inkscape:zoom="0.7791994"
     inkscape:cx="297.7415"
     inkscape:cy="420.3032"
     inkscape:window-width="1920"
     inkscape:window-height="1013"
     inkscape:window-x="-9"
     inkscape:window-y="-9"
     inkscape:window-maximized="1"
     inkscape:current-layer="svg4155" />
  <metadata
     id="metadata4381">
    <rdf:RDF>
      <cc:Work
         rdf:about="">
        <dc:format>image/svg+xml</dc:format>
        <dc:type
           rdf:resource="http://purl.org/dc/dcmitype/StillImage" />
        <dc:title />
      </cc:Work>
    </rdf:RDF>
  </metadata>
  <text
     style="font-size:10.81431293px"
     transform="scale(0.90119277,1.1096405)"
     x="110.64129"
     y="242.42284"
     id="text4260"><tspan
       font-size="3.5000"
       id="tspan4262"
       style="font-size:3.15417457px;font-family:Calibri;fill:#102a83">www.lcad.ufba.br</tspan></text>
  <path
     d="m 44.692902,265.3338 139.998718,0 0,-0.545 -139.998718,0 0,0.545 z"
     style="fill:url(#grad3)"
     id="path4271" />
  <defs
     id="defs4277">
    <linearGradient
       id="grad4">
      <stop
         id="stop4280"
         stop-opacity="1.0000"
         stop-color="#102a83"
         offset="0.0000%" />
      <stop
         id="stop4282"
         stop-opacity="1.0000"
         stop-color="#008bd0"
         offset="23.0000%" />
      <stop
         id="stop4284"
         stop-opacity="1.0000"
         stop-color="#ffffff"
         offset="100.0000%" />
    </linearGradient>
    <linearGradient
       gradientTransform="matrix(0.94028498,0,0,1.0635074,0,2)"
       gradientUnits="userSpaceOnUse"
       y2="244.78683"
       x2="46.768268"
       y1="94.815705"
       x1="46.768268"
       id="grad5"
       xlink:href="#grad4" />
    <defs
       id="defs4158">
      <linearGradient
         id="grad1">
        <stop
           offset="0.0000%"
           stop-color="#102a83"
           stop-opacity="1.0000"
           id="stop4161" />
        <stop
           offset="23.0000%"
           stop-color="#008bd0"
           stop-opacity="1.0000"
           id="stop4163" />
        <stop
           offset="100.0000%"
           stop-color="#ffffff"
           stop-opacity="1.0000"
           id="stop4165" />
      </linearGradient>
      <linearGradient
         xlink:href="#grad1"
         id="grad2"
         x1="259.17496"
         y1="93.363491"
         x2="259.17496"
         y2="245.66733"
         gradientUnits="userSpaceOnUse"
         gradientTransform="scale(0.92588342,1.0800496)" />
    </defs>
    <defs
       id="defs4264">
      <radialGradient
         id="grad3"
         cx="19.302015"
         cy="4263.6132"
         r="8.7665352"
         gradientTransform="matrix(15.969675,0,0,0.06216823,-193.55465,0)"
         fx="19.302015"
         fy="4263.6132"
         gradientUnits="userSpaceOnUse">
        <stop
           offset="0%"
           stop-color="#008bd0"
           stop-opacity="1.0000"
           id="stop4267" />
        <stop
           offset="100%"
           stop-color="#ffffff"
           stop-opacity="1.0000"
           id="stop4269" />
      </radialGradient>
    </defs>
    <filter
       height="1.0419688"
       y="-0.020984377"
       width="1.028094"
       x="-0.014047019"
       id="filter4492"
       style="color-interpolation-filters:sRGB">
      <feGaussianBlur
         id="feGaussianBlur4494"
         stdDeviation="0.40381035" />
    </filter>
  </defs>
  <path
     id="path4287"
     style="fill:url(#grad5)"
     d="m 43.9755,262.3326 141.0156,0 0,-159.4954 -141.0156,0 0,159.4954 z" />
  <path
     id="path4289"
     style="fill:#102a83;fill-rule:evenodd;opacity:0.769"
     d="m 50.2406,246.1132 0,-44.5167 9.9376,0 0,34.1172 12.3532,0 0,10.3995 -22.2908,0 z m 53.5614,-42.7948 0,13.2668 c -1.3595,-1.8491 -2.719,-3.1977 -4.0719,-4.0585 -1.3506,-0.8611 -2.8056,-1.297 -4.3445,-1.297 -2.8566,0 -5.1697,1.1915 -6.9374,3.5686 -1.7676,2.3881 -2.6525,5.4909 -2.6525,9.3218 0,3.5713 0.9004,6.528 2.7035,8.8834 1.803,2.3555 4.0984,3.5305 6.8864,3.5305 1.5389,0 2.9939,-0.4359 4.3445,-1.2995 1.3529,-0.8611 2.7124,-2.2203 4.0719,-4.0883 l 0,13.2966 c -1.5813,0.9231 -3.1449,1.6298 -4.7085,2.0956 -1.5568,0.4682 -3.1381,0.6958 -4.7283,0.6958 -1.9982,0 -3.8345,-0.2898 -5.5177,-0.8718 -1.6834,-0.5713 -3.2379,-1.4541 -4.6508,-2.6263 -2.7187,-2.231 -4.7948,-5.0334 -6.2229,-8.4177 -1.4282,-3.3926 -2.1426,-7.2018 -2.1426,-11.4366 0,-3.4059 0.4502,-6.4981 1.362,-9.2894 0.9004,-2.7941 2.2688,-5.3149 4.0962,-7.5892 1.7274,-2.1685 3.6726,-3.7876 5.8414,-4.868 2.1602,-1.0667 4.573,-1.6081 7.2344,-1.6081 1.5902,0 3.1715,0.23 4.7283,0.6958 1.5636,0.4682 3.1272,1.1722 4.7085,2.0955 z m 15.2537,26.1571 9.8867,0 -3.7146,-14.6882 c -0.1108,-0.4438 -0.2706,-1.1615 -0.468,-2.1578 -0.204,-0.9855 -0.459,-2.2633 -0.7717,-3.8284 -0.2129,1.0993 -0.4258,2.1361 -0.6387,3.1326 -0.2041,0.9963 -0.417,1.9413 -0.6299,2.8536 l -3.6638,14.6882 z m -13.9253,16.6377 12.5814,-44.5167 12.455,0 12.6015,44.5167 -9.8891,0 -1.8452,-7.9708 -14.1205,0 -1.8964,7.9708 -9.8867,0 z m 41.1153,0 0,-44.5167 7.5913,0 c 5.662,0 9.6762,0.3221 12.0225,0.9746 2.3466,0.6445 4.4114,1.7356 6.19,3.2489 2.3021,1.9739 4.0539,4.4837 5.2539,7.5568 1.1976,3.0729 1.7942,6.582 1.7942,10.505 0,3.934 -0.5966,7.4404 -1.7942,10.5133 -1.2,3.0732 -2.9518,5.583 -5.2539,7.5568 -1.7609,1.4944 -3.768,2.5638 -6.028,3.2056 -2.2621,0.6336 -5.7639,0.9557 -10.5099,0.9557 l -1.6746,0 -7.5913,0 z m 9.8357,-9.9743 1.6679,0 c 3.9011,0 6.7574,-0.9748 8.5516,-2.9377 1.7942,-1.9522 2.688,-5.055 2.688,-9.3194 0,-4.2561 -0.8938,-7.3805 -2.688,-9.3623 -1.7942,-1.9821 -4.6505,-2.9783 -8.5516,-2.9783 l -1.6679,0 0,24.5977 z" />
  <path
     id="path4291"
     style="fill:#008bd0;fill-rule:evenodd;opacity:0.712"
     d="m 50.2406,199.4055 0,-44.5167 9.9376,0 0,34.1172 12.3532,0 0,10.3995 -22.2908,0 z m 53.5614,-42.7948 0,13.2668 c -1.3595,-1.8491 -2.719,-3.1977 -4.0719,-4.0585 -1.3506,-0.8611 -2.8056,-1.297 -4.3445,-1.297 -2.8566,0 -5.1697,1.1915 -6.9374,3.5686 -1.7676,2.3881 -2.6525,5.4909 -2.6525,9.3218 0,3.5713 0.9004,6.528 2.7035,8.8834 1.803,2.3555 4.0984,3.5308 6.8864,3.5308 1.5389,0 2.9939,-0.4362 4.3445,-1.2998 1.3529,-0.8611 2.7124,-2.22 4.0719,-4.0883 l 0,13.2966 c -1.5813,0.923 -3.1449,1.6298 -4.7085,2.0956 -1.5568,0.4682 -3.1381,0.6958 -4.7283,0.6958 -1.9982,0 -3.8345,-0.2898 -5.5177,-0.8718 -1.6834,-0.5713 -3.2379,-1.4541 -4.6508,-2.6263 -2.7187,-2.231 -4.7948,-5.0334 -6.2229,-8.4177 -1.4282,-3.3926 -2.1426,-7.2018 -2.1426,-11.4366 0,-3.4059 0.4502,-6.4978 1.362,-9.2894 0.9004,-2.7941 2.2688,-5.3149 4.0962,-7.5892 1.7274,-2.1685 3.6726,-3.7876 5.8414,-4.868 2.1602,-1.0667 4.573,-1.6081 7.2344,-1.6081 1.5902,0 3.1715,0.23 4.7283,0.6957 1.5636,0.4683 3.1272,1.1723 4.7085,2.0956 z m 15.2537,26.1571 9.8867,0 -3.7146,-14.6882 c -0.1108,-0.4438 -0.2706,-1.1615 -0.468,-2.1578 -0.204,-0.9855 -0.459,-2.2633 -0.7717,-3.8284 -0.2129,1.0993 -0.4258,2.1361 -0.6387,3.1326 -0.2041,0.9963 -0.417,1.9413 -0.6299,2.8536 l -3.6638,14.6882 z m -13.9253,16.6377 12.5814,-44.5167 12.455,0 12.6015,44.5167 -9.8891,0 -1.8452,-7.9708 -14.1205,0 -1.8964,7.9708 -9.8867,0 z m 41.1153,0 0,-44.5167 7.5913,0 c 5.662,0 9.6762,0.3221 12.0225,0.9746 2.3466,0.6445 4.4114,1.7356 6.19,3.2492 2.3021,1.9735 4.0539,4.4833 5.2539,7.5565 1.1976,3.0729 1.7942,6.582 1.7942,10.505 0,3.934 -0.5966,7.4404 -1.7942,10.5133 -1.2,3.0732 -2.9518,5.583 -5.2539,7.5568 -1.7609,1.4944 -3.768,2.5638 -6.028,3.2056 -2.2621,0.6336 -5.7639,0.9557 -10.5099,0.9557 l -1.6746,0 -7.5913,0 z m 9.8357,-9.9743 1.6679,0 c 3.9011,0 6.7574,-0.9748 8.5516,-2.9377 1.7942,-1.9522 2.688,-5.055 2.688,-9.3194 0,-4.2561 -0.8938,-7.3805 -2.688,-9.3623 -1.7942,-1.9821 -4.6505,-2.9783 -8.5516,-2.9783 l -1.6679,0 0,24.5977 z" />
  <path
     id="path4293"
     style="fill:#ffffff;fill-rule:evenodd"
     d="m 50.2406,152.5593 0,-44.517 9.9376,0 0,34.1172 12.3532,0 0,10.3998 -22.2908,0 z m 53.5614,-42.7951 0,13.2668 c -1.3595,-1.8491 -2.719,-3.1974 -4.0719,-4.0585 -1.3506,-0.8611 -2.8056,-1.297 -4.3445,-1.297 -2.8566,0 -5.1697,1.1915 -6.9374,3.5686 -1.7676,2.3881 -2.6525,5.4909 -2.6525,9.3221 0,3.571 0.9004,6.5277 2.7035,8.8831 1.803,2.3558 4.0984,3.5308 6.8864,3.5308 1.5389,0 2.9939,-0.4359 4.3445,-1.2998 1.3529,-0.8608 2.7124,-2.22 4.0719,-4.0883 l 0,13.2966 c -1.5813,0.9234 -3.1449,1.6298 -4.7085,2.0956 -1.5568,0.4685 -3.1381,0.6958 -4.7283,0.6958 -1.9982,0 -3.8345,-0.2895 -5.5177,-0.8718 -1.6834,-0.5713 -3.2379,-1.4538 -4.6508,-2.6263 -2.7187,-2.231 -4.7948,-5.0331 -6.2229,-8.4177 -1.4282,-3.3923 -2.1426,-7.2018 -2.1426,-11.4363 0,-3.4062 0.4502,-6.498 1.362,-9.2894 0.9004,-2.7944 2.2688,-5.3149 4.0962,-7.5892 1.7274,-2.1688 3.6726,-3.7879 5.8414,-4.8683 2.1602,-1.0667 4.573,-1.6081 7.2344,-1.6081 1.5902,0 3.1715,0.23 4.7283,0.6958 1.5636,0.4685 3.1272,1.1722 4.7085,2.0955 z m 15.2537,26.1574 9.8867,0 -3.7146,-14.6882 c -0.1108,-0.4441 -0.2706,-1.1615 -0.468,-2.1581 -0.204,-0.9855 -0.459,-2.2633 -0.7717,-3.8284 -0.2129,1.0993 -0.4258,2.1364 -0.6387,3.1326 -0.2041,0.9966 -0.417,1.9413 -0.6299,2.8539 l -3.6638,14.6882 z m -13.9253,16.6377 12.5814,-44.517 12.455,0 12.6015,44.517 -9.8891,0 -1.8452,-7.9711 -14.1205,0 -1.8964,7.9711 -9.8867,0 z m 41.1153,0 0,-44.517 7.5913,0 c 5.662,0 9.6762,0.3221 12.0225,0.9746 2.3466,0.6445 4.4114,1.7356 6.19,3.2492 2.3021,1.9739 4.0539,4.4837 5.2539,7.5566 1.1976,3.0731 1.7942,6.5819 1.7942,10.5052 0,3.934 -0.5966,7.4401 -1.7942,10.5133 -1.2,3.0729 -2.9518,5.5827 -5.2539,7.5565 -1.7609,1.4947 -3.768,2.5641 -6.028,3.2056 -2.2621,0.6336 -5.7639,0.956 -10.5099,0.956 l -1.6746,0 -7.5913,0 z m 9.8357,-9.9746 1.6679,0 c 3.9011,0 6.7574,-0.9748 8.5516,-2.9377 1.7942,-1.9519 2.688,-5.0547 2.688,-9.3191 0,-4.2564 -0.8938,-7.3808 -2.688,-9.3626 -1.7942,-1.9818 -4.6505,-2.9783 -8.5516,-2.9783 l -1.6679,0 0,24.5977 z" />
  <text
     style="font-size:10.81431293px"
     transform="scale(0.90119277,1.1096405)"
     x="74.111595"
     y="238.05429"
     id="text4256"><tspan
       font-size="3.5000"
       id="tspan4258"
       style="font-size:3.15417457px;font-family:Calibri;fill:#102a83">FACULDADE DE ARQUITETURA / UNIVERSIDADE FEDERAL DA BAHIA</tspan></text>
</svg>
