<?xml version="1.0" encoding="UTF-8" standalone="no"?>
<svg
   xmlns:dc="http://purl.org/dc/elements/1.1/"
   xmlns:cc="http://creativecommons.org/ns#"
   xmlns:rdf="http://www.w3.org/1999/02/22-rdf-syntax-ns#"
   xmlns:svg="http://www.w3.org/2000/svg"
   xmlns="http://www.w3.org/2000/svg"
   xmlns:xlink="http://www.w3.org/1999/xlink"
   viewBox="0 0 595.27557 841.88977"
   id="svg4155"
   height="841.88977"
   width="595.27557"
   version="1.1">
  <metadata
     id="metadata4381">
    <rdf:RDF>
      <cc:Work
         rdf:about="">
        <dc:format>image/svg+xml</dc:format>
        <dc:type
           rdf:resource="http://purl.org/dc/dcmitype/StillImage" />
        <dc:title></dc:title>
      </cc:Work>
    </rdf:RDF>
  </metadata>
  <text
     style="font-size:10.81431293px"
     transform="scale(0.90119277,1.1096405)"
     x="110.64129"
     y="242.42284"
     id="text4260">
    <tspan
       font-size="3.5000"
       id="tspan4262"
       style="font-size:3.15417457px;font-family:Calibri;fill:#102a83">www.lcad.ufba.br</tspan>
  </text>
  <path
     d="m 44.692902,265.3338 139.998718,0 0,-0.545 -139.998718,0 0,0.545 z"
     style="fill:url(#grad3)"
     id="path4271" />
  <defs
     id="defs4277">
    <linearGradient
       id="grad4">
      <stop
         id="stop4280"
         stop-opacity="1.0000"
         stop-color="#102a83"
         offset="0.0000%" />
      <stop
         id="stop4282"
         stop-opacity="1.0000"
         stop-color="#008bd0"
         offset="23.0000%" />
      <stop
         id="stop4284"
         stop-opacity="1.0000"
         stop-color="#ffffff"
         offset="100.0000%" />
    </linearGradient>
    <linearGradient
       gradientTransform="matrix(0.94028498,0,0,1.0635074,0,2)"
       gradientUnits="userSpaceOnUse"
       y2="244.78683"
       x2="46.768268"
       y1="94.815705"
       x1="46.768268"
       id="grad5"
       xlink:href="#grad4" />
    <defs
       id="defs4158">
      <linearGradient
         id="grad1">
        <stop
           offset="0.0000%"
           stop-color="#102a83"
           stop-opacity="1.0000"
           id="stop4161" />
        <stop
           offset="23.0000%"
           stop-color="#008bd0"
           stop-opacity="1.0000"
           id="stop4163" />
        <stop
           offset="100.0000%"
           stop-color="#ffffff"
           stop-opacity="1.0000"
           id="stop4165" />
      </linearGradient>
      <linearGradient
         xlink:href="#grad1"
         id="grad2"
         x1="259.17496"
         y1="93.363491"
         x2="259.17496"
         y2="245.66733"
         gradientUnits="userSpaceOnUse"
         gradientTransform="scale(0.92588342,1.0800496)" />
    </defs>
    <defs
       id="defs4264">
      <radialGradient
         id="grad3"
         cx="19.302015"
         cy="4263.6132"
         r="8.7665352"
         gradientTransform="matrix(15.969675,0,0,0.06216823,-193.55465,0)"
         fx="19.302015"
         fy="4263.6132"
         gradientUnits="userSpaceOnUse">
        <stop
           offset="0%"
           stop-color="#008bd0"
           stop-opacity="1.0000"
           id="stop4267" />
        <stop
           offset="100%"
           stop-color="#ffffff"
           stop-opacity="1.0000"
           id="stop4269" />
      </radialGradient>
    </defs>
    <filter
       height="1.0253105"
       y="-0.012655264"
       width="1.0227974"
       x="-0.011398711"
       id="filter4492"
       style="color-interpolation-filters:sRGB">
      <feGaussianBlur
         id="feGaussianBlur4494"
         stdDeviation="0.40381035" />
    </filter>
  </defs>
  <path
     id="path4287"
     style="fill:url(#grad5)"
     d="m 43.9755,262.3326 141.0156,0 0,-159.4954 -141.0156,0 0,159.4954 z" />
  <text
     transform="matrix(0.83863295,-0.54532275,0.54624179,0.83722196,0,0)"
     id="text4396"
     y="281.5199"
     x="-34.739296"
     style="font-style:normal;font-weight:normal;font-size:26.67828941px;line-height:125%;font-family:sans-serif;letter-spacing:0px;word-spacing:0px;fill:#000000;fill-opacity:1;stroke:none;stroke-width:1px;stroke-linecap:butt;stroke-linejoin:miter;stroke-opacity:1"
     xml:space="preserve"><tspan
       y="281.5199"
       x="-34.739296"
       id="tspan4398">anos</tspan></text>
  <path
     id="path4295"
     style="fill:#102a83;fill-rule:evenodd"
     d="m 103.382,249.5984 c -0.822,-0.6917 -1.6103,-1.4004 -2.3624,-2.1235 -0.7664,-0.7369 -1.5047,-1.4948 -2.2125,-2.2719 l -0.0025,-0.003 -0.2873,-0.3183 0,-0.003 c -8.7131,-9.7373 -12.6869,-22.0406 -12.065,-34.1103 0.6217,-12.0713 5.8391,-23.9103 15.5063,-32.7168 l 0.003,0 0.319,-0.2881 0.003,-0.003 c 9.8734,-8.8349 22.4235,-12.8669 34.7315,-12.2442 12.3129,0.6231 24.3861,5.9017 33.2995,15.6867 3.1918,3.5037 5.8249,7.4397 7.8324,11.6682 2.0076,4.228 3.3894,8.7479 4.0792,13.4197 l -1.3523,0.1976 c -0.6703,-4.5394 -2.0122,-8.9296 -3.9615,-13.035 -1.9481,-4.1035 -4.5057,-7.9257 -7.608,-11.3312 -8.6617,-9.5085 -20.3918,-14.6381 -32.3534,-15.2434 -11.9662,-0.6055 -24.165,3.3122 -33.7584,11.8965 l -0.3155,0.2846 0.001,0.001 c -9.3909,8.5548 -14.4592,20.0534 -15.0631,31.7761 -0.6041,11.7241 3.2547,23.6739 11.7162,33.1307 l 0.0013,-0.001 0.2849,0.3155 c 0.6955,0.7637 1.4127,1.5006 2.1484,2.2079 0.7517,0.7226 1.517,1.4121 2.293,2.065 l -0.8767,1.0419 z" />
  <text
     transform="matrix(0.82718164,-0.58019013,0.62002947,0.77403195,0,0)"
     id="text4388"
     y="266.66129"
     x="-60.454227"
     style="font-style:normal;font-weight:normal;font-size:61.06201553px;line-height:125%;font-family:sans-serif;letter-spacing:0px;word-spacing:0px;fill:#000000;fill-opacity:1;stroke:none;stroke-width:1px;stroke-linecap:butt;stroke-linejoin:miter;stroke-opacity:1"
     xml:space="preserve"><tspan
       id="tspan3424">30</tspan></text>
  <path
     id="path4289"
     style="fill:#102a83;fill-rule:evenodd;opacity:0.769"
     d="m 50.2406,246.1132 0,-44.5167 9.9376,0 0,34.1172 12.3532,0 0,10.3995 -22.2908,0 z m 53.5614,-42.7948 0,13.2668 c -1.3595,-1.8491 -2.719,-3.1977 -4.0719,-4.0585 -1.3506,-0.8611 -2.8056,-1.297 -4.3445,-1.297 -2.8566,0 -5.1697,1.1915 -6.9374,3.5686 -1.7676,2.3881 -2.6525,5.4909 -2.6525,9.3218 0,3.5713 0.9004,6.528 2.7035,8.8834 1.803,2.3555 4.0984,3.5305 6.8864,3.5305 1.5389,0 2.9939,-0.4359 4.3445,-1.2995 1.3529,-0.8611 2.7124,-2.2203 4.0719,-4.0883 l 0,13.2966 c -1.5813,0.9231 -3.1449,1.6298 -4.7085,2.0956 -1.5568,0.4682 -3.1381,0.6958 -4.7283,0.6958 -1.9982,0 -3.8345,-0.2898 -5.5177,-0.8718 -1.6834,-0.5713 -3.2379,-1.4541 -4.6508,-2.6263 -2.7187,-2.231 -4.7948,-5.0334 -6.2229,-8.4177 -1.4282,-3.3926 -2.1426,-7.2018 -2.1426,-11.4366 0,-3.4059 0.4502,-6.4981 1.362,-9.2894 0.9004,-2.7941 2.2688,-5.3149 4.0962,-7.5892 1.7274,-2.1685 3.6726,-3.7876 5.8414,-4.868 2.1602,-1.0667 4.573,-1.6081 7.2344,-1.6081 1.5902,0 3.1715,0.23 4.7283,0.6958 1.5636,0.4682 3.1272,1.1722 4.7085,2.0955 z m 15.2537,26.1571 9.8867,0 -3.7146,-14.6882 c -0.1108,-0.4438 -0.2706,-1.1615 -0.468,-2.1578 -0.204,-0.9855 -0.459,-2.2633 -0.7717,-3.8284 -0.2129,1.0993 -0.4258,2.1361 -0.6387,3.1326 -0.2041,0.9963 -0.417,1.9413 -0.6299,2.8536 l -3.6638,14.6882 z m -13.9253,16.6377 12.5814,-44.5167 12.455,0 12.6015,44.5167 -9.8891,0 -1.8452,-7.9708 -14.1205,0 -1.8964,7.9708 -9.8867,0 z m 41.1153,0 0,-44.5167 7.5913,0 c 5.662,0 9.6762,0.3221 12.0225,0.9746 2.3466,0.6445 4.4114,1.7356 6.19,3.2489 2.3021,1.9739 4.0539,4.4837 5.2539,7.5568 1.1976,3.0729 1.7942,6.582 1.7942,10.505 0,3.934 -0.5966,7.4404 -1.7942,10.5133 -1.2,3.0732 -2.9518,5.583 -5.2539,7.5568 -1.7609,1.4944 -3.768,2.5638 -6.028,3.2056 -2.2621,0.6336 -5.7639,0.9557 -10.5099,0.9557 l -1.6746,0 -7.5913,0 z m 9.8357,-9.9743 1.6679,0 c 3.9011,0 6.7574,-0.9748 8.5516,-2.9377 1.7942,-1.9522 2.688,-5.055 2.688,-9.3194 0,-4.2561 -0.8938,-7.3805 -2.688,-9.3623 -1.7942,-1.9821 -4.6505,-2.9783 -8.5516,-2.9783 l -1.6679,0 0,24.5977 z" />
  <path
     id="path4291"
     style="fill:#008bd0;fill-rule:evenodd;opacity:0.712"
     d="m 50.2406,199.4055 0,-44.5167 9.9376,0 0,34.1172 12.3532,0 0,10.3995 -22.2908,0 z m 53.5614,-42.7948 0,13.2668 c -1.3595,-1.8491 -2.719,-3.1977 -4.0719,-4.0585 -1.3506,-0.8611 -2.8056,-1.297 -4.3445,-1.297 -2.8566,0 -5.1697,1.1915 -6.9374,3.5686 -1.7676,2.3881 -2.6525,5.4909 -2.6525,9.3218 0,3.5713 0.9004,6.528 2.7035,8.8834 1.803,2.3555 4.0984,3.5308 6.8864,3.5308 1.5389,0 2.9939,-0.4362 4.3445,-1.2998 1.3529,-0.8611 2.7124,-2.22 4.0719,-4.0883 l 0,13.2966 c -1.5813,0.923 -3.1449,1.6298 -4.7085,2.0956 -1.5568,0.4682 -3.1381,0.6958 -4.7283,0.6958 -1.9982,0 -3.8345,-0.2898 -5.5177,-0.8718 -1.6834,-0.5713 -3.2379,-1.4541 -4.6508,-2.6263 -2.7187,-2.231 -4.7948,-5.0334 -6.2229,-8.4177 -1.4282,-3.3926 -2.1426,-7.2018 -2.1426,-11.4366 0,-3.4059 0.4502,-6.4978 1.362,-9.2894 0.9004,-2.7941 2.2688,-5.3149 4.0962,-7.5892 1.7274,-2.1685 3.6726,-3.7876 5.8414,-4.868 2.1602,-1.0667 4.573,-1.6081 7.2344,-1.6081 1.5902,0 3.1715,0.23 4.7283,0.6957 1.5636,0.4683 3.1272,1.1723 4.7085,2.0956 z m 15.2537,26.1571 9.8867,0 -3.7146,-14.6882 c -0.1108,-0.4438 -0.2706,-1.1615 -0.468,-2.1578 -0.204,-0.9855 -0.459,-2.2633 -0.7717,-3.8284 -0.2129,1.0993 -0.4258,2.1361 -0.6387,3.1326 -0.2041,0.9963 -0.417,1.9413 -0.6299,2.8536 l -3.6638,14.6882 z m -13.9253,16.6377 12.5814,-44.5167 12.455,0 12.6015,44.5167 -9.8891,0 -1.8452,-7.9708 -14.1205,0 -1.8964,7.9708 -9.8867,0 z m 41.1153,0 0,-44.5167 7.5913,0 c 5.662,0 9.6762,0.3221 12.0225,0.9746 2.3466,0.6445 4.4114,1.7356 6.19,3.2492 2.3021,1.9735 4.0539,4.4833 5.2539,7.5565 1.1976,3.0729 1.7942,6.582 1.7942,10.505 0,3.934 -0.5966,7.4404 -1.7942,10.5133 -1.2,3.0732 -2.9518,5.583 -5.2539,7.5568 -1.7609,1.4944 -3.768,2.5638 -6.028,3.2056 -2.2621,0.6336 -5.7639,0.9557 -10.5099,0.9557 l -1.6746,0 -7.5913,0 z m 9.8357,-9.9743 1.6679,0 c 3.9011,0 6.7574,-0.9748 8.5516,-2.9377 1.7942,-1.9522 2.688,-5.055 2.688,-9.3194 0,-4.2561 -0.8938,-7.3805 -2.688,-9.3623 -1.7942,-1.9821 -4.6505,-2.9783 -8.5516,-2.9783 l -1.6679,0 0,24.5977 z" />
  <path
     id="path4293"
     style="fill:#ffffff;fill-rule:evenodd"
     d="m 50.2406,152.5593 0,-44.517 9.9376,0 0,34.1172 12.3532,0 0,10.3998 -22.2908,0 z m 53.5614,-42.7951 0,13.2668 c -1.3595,-1.8491 -2.719,-3.1974 -4.0719,-4.0585 -1.3506,-0.8611 -2.8056,-1.297 -4.3445,-1.297 -2.8566,0 -5.1697,1.1915 -6.9374,3.5686 -1.7676,2.3881 -2.6525,5.4909 -2.6525,9.3221 0,3.571 0.9004,6.5277 2.7035,8.8831 1.803,2.3558 4.0984,3.5308 6.8864,3.5308 1.5389,0 2.9939,-0.4359 4.3445,-1.2998 1.3529,-0.8608 2.7124,-2.22 4.0719,-4.0883 l 0,13.2966 c -1.5813,0.9234 -3.1449,1.6298 -4.7085,2.0956 -1.5568,0.4685 -3.1381,0.6958 -4.7283,0.6958 -1.9982,0 -3.8345,-0.2895 -5.5177,-0.8718 -1.6834,-0.5713 -3.2379,-1.4538 -4.6508,-2.6263 -2.7187,-2.231 -4.7948,-5.0331 -6.2229,-8.4177 -1.4282,-3.3923 -2.1426,-7.2018 -2.1426,-11.4363 0,-3.4062 0.4502,-6.498 1.362,-9.2894 0.9004,-2.7944 2.2688,-5.3149 4.0962,-7.5892 1.7274,-2.1688 3.6726,-3.7879 5.8414,-4.8683 2.1602,-1.0667 4.573,-1.6081 7.2344,-1.6081 1.5902,0 3.1715,0.23 4.7283,0.6958 1.5636,0.4685 3.1272,1.1722 4.7085,2.0955 z m 15.2537,26.1574 9.8867,0 -3.7146,-14.6882 c -0.1108,-0.4441 -0.2706,-1.1615 -0.468,-2.1581 -0.204,-0.9855 -0.459,-2.2633 -0.7717,-3.8284 -0.2129,1.0993 -0.4258,2.1364 -0.6387,3.1326 -0.2041,0.9966 -0.417,1.9413 -0.6299,2.8539 l -3.6638,14.6882 z m -13.9253,16.6377 12.5814,-44.517 12.455,0 12.6015,44.517 -9.8891,0 -1.8452,-7.9711 -14.1205,0 -1.8964,7.9711 -9.8867,0 z m 41.1153,0 0,-44.517 7.5913,0 c 5.662,0 9.6762,0.3221 12.0225,0.9746 2.3466,0.6445 4.4114,1.7356 6.19,3.2492 2.3021,1.9739 4.0539,4.4837 5.2539,7.5566 1.1976,3.0731 1.7942,6.5819 1.7942,10.5052 0,3.934 -0.5966,7.4401 -1.7942,10.5133 -1.2,3.0729 -2.9518,5.5827 -5.2539,7.5565 -1.7609,1.4947 -3.768,2.5641 -6.028,3.2056 -2.2621,0.6336 -5.7639,0.956 -10.5099,0.956 l -1.6746,0 -7.5913,0 z m 9.8357,-9.9746 1.6679,0 c 3.9011,0 6.7574,-0.9748 8.5516,-2.9377 1.7942,-1.9519 2.688,-5.0547 2.688,-9.3191 0,-4.2564 -0.8938,-7.3808 -2.688,-9.3626 -1.7942,-1.9818 -4.6505,-2.9783 -8.5516,-2.9783 l -1.6679,0 0,24.5977 z" />
  <path
     id="path4297"
     style="fill:#ffffff;fill-rule:evenodd"
     d="m 104.4513,249.4228 c -0.9109,-0.7514 -1.7878,-1.5304 -2.6278,-2.3335 l 0,-0.003 c -0.8535,-0.8165 -1.6631,-1.6477 -2.4257,-2.4913 l -3e-4,3e-4 -2e-4,-3e-4 -0.0238,-0.0268 c -8.8642,-9.8181 -12.9097,-22.3012 -12.2845,-34.5454 0.6244,-12.2336 5.9121,-24.2293 15.7143,-33.0919 l -3e-4,-3e-4 3e-4,-2e-4 0.0268,-0.0238 c 9.8181,-8.8642 22.3011,-12.9097 34.5457,-12.2845 12.2442,0.625 24.2509,5.9217 33.1162,15.7411 3.3705,3.733 6.1119,7.9533 8.1481,12.4919 2.0358,4.5371 3.3656,9.3911 3.9139,14.3935 l -1.3572,0.1444 c -0.5327,-4.8597 -1.8242,-9.5753 -3.8016,-13.9819 -1.9756,-4.4034 -4.6398,-8.5028 -7.9183,-12.134 -8.6128,-9.5395 -20.2764,-14.6852 -32.1706,-15.2924 -11.8836,-0.6069 -23.9993,3.3169 -33.5355,11.9132 l -3e-4,3e-4 -0.0268,0.0238 c -9.5392,8.6122 -14.6849,20.2758 -15.2921,32.1703 -0.6068,11.8833 3.3169,23.999 11.9132,33.5352 l 3e-4,2e-4 0.0238,0.0269 c 0.7765,0.8602 1.5692,1.6772 2.3739,2.4469 l 0.001,-0.001 c 0.829,0.7926 1.6811,1.5503 2.5528,2.2694 l -0.8657,1.0529 z" />
  <text
     xml:space="preserve"
     style="font-style:normal;font-weight:normal;font-size:61.06201553px;line-height:125%;font-family:sans-serif;letter-spacing:0px;word-spacing:0px;opacity:1;fill:#ffffff;fill-opacity:1;stroke:none;stroke-width:1px;stroke-linecap:butt;stroke-linejoin:miter;stroke-opacity:1;filter:url(#filter4492);"
     x="-62.4636"
     y="263.68887"
     id="text4392"
     transform="matrix(0.82718164,-0.58019013,0.62002947,0.77403195,0,0)"><tspan
       style="fill:#ffffff;opacity:1;"
       y="263.68887"
       x="-62.4636"
       id="tspan3420">30</tspan></text>
  <text
     xml:space="preserve"
     style="font-style:normal;font-weight:normal;font-size:26.67828941px;line-height:125%;font-family:sans-serif;letter-spacing:0px;word-spacing:0px;fill:#ffffff;fill-opacity:1;stroke:none;stroke-width:1px;stroke-linecap:butt;stroke-linejoin:miter;stroke-opacity:1"
     x="-36.413738"
     y="280.42926"
     id="text4400"
     transform="matrix(0.83863295,-0.54532275,0.54624179,0.83722196,0,0)"><tspan
       id="tspan4402"
       x="-36.413738"
       y="280.42926">anos</tspan></text>
  <text
     transform="matrix(0.86608752,-0.54472747,0.61389217,0.76850902,0,0)"
     id="text4408"
     y="299.00943"
     x="-58.921803"
     style="font-style:normal;font-weight:normal;font-size:10.28068066px;line-height:125%;font-family:sans-serif;letter-spacing:0px;word-spacing:0px;fill:#000000;fill-opacity:1;stroke:none;stroke-width:1px;stroke-linecap:butt;stroke-linejoin:miter;stroke-opacity:1"
     xml:space="preserve"><tspan
       y="299.00943"
       x="-58.921803"
       style="fill:#ff00ff"
       id="tspan3422"><tspan
         id="tspan3426"
         style="fill:#000000">1992</tspan><tspan
         style="fill:#b3b3b3"
         id="tspan3440">/</tspan><tspan
         id="tspan3430"
         style="fill:#ffffff">2022</tspan></tspan></text>
  <text
     style="font-size:10.81431293px"
     transform="scale(0.90119277,1.1096405)"
     x="74.111595"
     y="238.05429"
     id="text4256">
    <tspan
       font-size="3.5000"
       id="tspan4258"
       style="font-size:3.15417457px;font-family:Calibri;fill:#102a83">FACULDADE DE ARQUITETURA / UNIVERSIDADE FEDERAL DA BAHIA</tspan>
  </text>
</svg>
